<svg xmlns="http://www.w3.org/2000/svg" viewBox="0 0 512 512" width="512" height="512">
  <defs>
    <radialGradient id="spot" cx="50%" cy="35%" r="55%">
      <stop offset="0%" stop-color="#5a1a1a" stop-opacity="0.45"/>
      <stop offset="100%" stop-color="#3a0d0d" stop-opacity="0"/>
    </radialGradient>
    <clipPath id="diskClip">
      <circle cx="256" cy="256" r="256"/>
    </clipPath>
  </defs>

  <!-- Disque bordeaux -->
  <circle cx="256" cy="256" r="256" fill="#3a0d0d"/>

  <!-- Spotlight (clipé) -->
  <g clip-path="url(#diskClip)">
    <rect width="512" height="512" fill="url(#spot)"/>
  </g>

  <!-- Bordure dorée -->
  <circle cx="256" cy="256" r="228"
          fill="none" stroke="#c9a84c" stroke-width="4" opacity="0.60"/>

  <!-- Q stylisé (incliné italique) -->
  <g transform="rotate(-9 256 246)">
    <!-- O en couronne (even-odd) -->
    <path fill="#c9a84c" fill-rule="evenodd"
          d="M 128,246
             a 128,158 0 1,0 256,0
             a 128,158 0 1,0 -256,0
             Z
             M 181,246
             a 75,105 0 1,0 150,0
             a 75,105 0 1,0 -150,0
             Z"/>

    <!-- Queue calligraphique -->
    <polygon points="337.6,338.4 340.2,342.7 341.7,347.1 342.9,351.5 343.9,356.0 344.9,360.6 345.9,365.1 346.8,369.7 347.6,374.4 348.5,379.0 349.3,383.6 350.2,388.3 351.1,393.0 352.0,397.6 352.9,402.3 353.8,407.0 354.9,411.6 355.9,416.3 357.0,420.9 358.2,425.5 359.5,430.1 360.8,434.7 362.2,439.2 363.7,443.8 365.4,448.3 367.1,452.7 368.9,457.1 370.9,461.5 373.0,465.8 375.2,470.1 377.5,474.4 380.0,478.5 382.6,482.6 385.4,486.7 388.4,490.7 391.5,494.6 394.7,498.5 398.2,502.2 401.8,505.9 405.6,509.5 409.6,513.1 413.8,516.5 418.1,519.9 422.7,523.2 427.5,526.4 432.5,529.5 437.7,532.5 443.1,535.5 448.8,538.3 454.6,541.1 460.8,543.7 467.1,546.3 473.8,548.8 480.7,551.1 487.8,553.4 495.2,555.6 502.9,557.7 510.9,559.7 519.2,561.6 527.7,563.3 536.6,565.0 537.4,561.0 528.7,559.0 520.3,556.8 512.2,554.6 504.5,552.3 497.0,549.9 489.8,547.3 483.0,544.7 476.4,542.1 470.1,539.3 464.1,536.4 458.3,533.5 452.9,530.5 447.7,527.4 442.7,524.3 438.0,521.1 433.5,517.8 429.3,514.4 425.3,511.0 421.5,507.6 418.0,504.1 414.6,500.6 411.5,497.0 408.5,493.3 405.8,489.6 403.2,485.9 400.8,482.1 398.5,478.3 396.5,474.5 394.5,470.6 392.7,466.6 391.1,462.7 389.6,458.7 388.2,454.6 387.0,450.6 385.8,446.5 384.8,442.3 383.9,438.1 383.0,433.9 382.3,429.7 381.6,425.4 381.1,421.1 380.6,416.7 380.2,412.3 379.8,407.9 379.6,403.5 379.3,399.0 379.2,394.5 379.1,390.0 379.0,385.5 379.0,380.9 379.0,376.3 379.0,371.7 379.1,367.0 379.2,362.3 379.4,357.7 379.6,352.9 379.9,348.2 380.2,343.4 380.8,338.6 382.4,333.6" fill="#c9a84c"/>

    <!-- Cap d'attache -->
    <circle cx="360.0" cy="336.0" r="22.5" fill="#c9a84c"/>
  </g>
</svg>
